<?xml version="1.0" encoding="utf-8"?>
<!-- Generator: Adobe Illustrator 19.0.0, SVG Export Plug-In . SVG Version: 6.00 Build 0)  -->
<svg version="1.1" id="Layer_1" xmlns="http://www.w3.org/2000/svg" xmlns:xlink="http://www.w3.org/1999/xlink" x="0px" y="0px"
	 viewBox="0 0 1000 800" style="enable-background:new 0 0 1000 800;" xml:space="preserve">
<style type="text/css">
	.st0{fill:#283B89;stroke:#000000;stroke-miterlimit:10;}
	.st1{fill:#283B89;}
	.st2{fill:#6372B6;stroke:#6372B6;stroke-width:12;stroke-miterlimit:10;}
	.st3{fill:#C9DDED;stroke:#C9DDED;stroke-width:12;stroke-miterlimit:10;}
</style>
<path id="XMLID_1_" class="st0" d="M60.9,0C131.5,15.8,220.1,48.4,259,124c30.8,59.9,5.8,99,17,166c27.1,162.5,240.2,326.9,403,302
	c107.2-16.4,116-103,304-160c63.4-19.2,85.7-16.4,133-43c25.4-14.3,163.9-92.1,158-214c-4.4-91.2-88.2-178.2-206-202"/>
<g id="XMLID_2_">
	<g id="XMLID_14_">
		<path id="XMLID_18_" d="M783,146.5c3.2,0,3.2-5,0-5C779.8,141.5,779.8,146.5,783,146.5L783,146.5z"/>
	</g>
</g>
<g id="XMLID_3_">
	<g id="XMLID_21_">
		<path id="XMLID_25_" d="M705.2,104.4c36.7,18.3,73.6,36.2,110.7,53.7c8.8,4.2,17.7,8.2,26.4,12.6c4.3,2.2,8.6,4.5,12.7,7
			c2,1.3,4,2.7,6,4c4.6,3.1-4.1-3.5,0.8,0.7c3,2.6,5.9,5.4,8.6,8.4c0.7,0.8,1.4,1.6,2.1,2.4c1.7,2.1,1.4,1.6-0.9-1.3
			c0,0,3.4,4.8,3.7,5.2c2.3,3.6,4.3,7.4,6.2,11.2c1.1,2.5,0.9,1.9-0.6-1.6c0.4,1,0.8,2,1.2,3c0.7,2,1.4,4,2,6.1
			c3.7,12.5,17.7,21.7,30.8,17.5c12.7-4.1,21.5-17.3,17.5-30.8c-9.6-32.2-31.8-57.7-61.3-73.3c-14.3-7.6-29.3-14-43.9-21
			c-15.1-7.2-30.2-14.4-45.2-21.8c-17.1-8.3-34.2-16.7-51.2-25.2c-11.7-5.8-27.6-3.5-34.2,9C690.3,81.5,692.7,98.2,705.2,104.4
			L705.2,104.4z"/>
	</g>
</g>
<g id="XMLID_4_">
	<g id="XMLID_28_">
		<path id="XMLID_32_" d="M759.7,77.3c21.6,21.4,43,43,64.2,64.8c2.2,2.3,5.8-1.2,3.5-3.5c-21.2-21.8-42.6-43.4-64.2-64.8
			C761,71.5,757.4,75,759.7,77.3L759.7,77.3z"/>
	</g>
</g>
<g id="XMLID_5_">
	<g id="XMLID_35_">
		<path id="XMLID_39_" class="st1" d="M660.2,75.9c34.5,11.3,68.9,22.5,103.4,33.8c3.1,1,4.4-3.8,1.3-4.8
			C730.4,93.6,696,82.4,661.5,71.1C658.4,70.1,657.1,74.9,660.2,75.9L660.2,75.9z"/>
	</g>
</g>
<path id="XMLID_7_" class="st2" d="M415,0c2,43.3,107.7,42.2,205,113c119.3,86.8,80.7,175.9,178,229c108.5,59.2,248.8-1.3,343-42
	c82.4-35.6,184.7-79.8,185-139c0.4-76-167.6-129.6-366-193c-275.1-87.8-403-72.4-488-27C454.7-49.8,413.8-27.3,415,0z"/>
<path id="XMLID_8_" class="st3" d="M660-18c2.9,40.5,67.1,73.6,78,79c75,37.3,108.2-2.7,212,20c75.8,16.6,86.6,44.2,174,55
	c34.4,4.2,94.7,11.7,104-9c12.6-28.1-65.4-115.9-168-153C924-75.2,828.2-5,675-57c0,0-64.4-21.9-66-17c-0.5,1.6,35,8.4,47,35
	C660-30.1,659.6-22.9,660-18z"/>
<path id="XMLID_6_" class="st0" d="M1465,378"/>
</svg>
