<?xml version="1.0" encoding="utf-8"?>
<!-- Generator: Adobe Illustrator 19.0.0, SVG Export Plug-In . SVG Version: 6.00 Build 0)  -->
<svg version="1.1" id="Layer_1" xmlns="http://www.w3.org/2000/svg" xmlns:xlink="http://www.w3.org/1999/xlink" x="0px" y="0px"
	 viewBox="0 0 487.3 487.3" style="enable-background:new 0 0 487.3 487.3;" xml:space="preserve">
<style type="text/css">
	.st0{fill:#FFFFFF;stroke:#000000;stroke-width:8;stroke-miterlimit:10;}
	.st1{fill:#00A79D;stroke:#000000;stroke-width:8;stroke-miterlimit:10;}
	.st2{fill:#1C75BC;}
	.st3{fill:#00A79D;}
	.st4{fill:#00A79D;stroke:#000000;stroke-width:16;stroke-miterlimit:10;}
	.st5{fill:none;stroke:#000000;stroke-width:21;stroke-linecap:round;stroke-miterlimit:10;}
</style>
<g>
	<path class="st0" d="M323.7,458.2h-158c-22.6,0-41-18.4-41-41v-347c0-22.5,18.5-41,41-41h158c22.6,0,41,18.4,41,41v347
		C364.7,439.7,346.2,458.2,323.7,458.2z"/>
	<path class="st1" d="M323.7,474.7h-158c-31.7,0-57.5-25.8-57.5-57.5v-347c0-31.7,25.8-57.5,57.5-57.5h158
		c31.7,0,57.5,25.8,57.5,57.5v347C381.2,448.9,355.4,474.7,323.7,474.7z M165.7,45.7c-13.5,0-24.5,11-24.5,24.5v347
		c0,13.5,11,24.5,24.5,24.5h158c13.5,0,24.5-11,24.5-24.5v-347c0-13.5-11-24.5-24.5-24.5H165.7z"/>
</g>
<g>
	<path class="st2" d="M250.9,329.5"/>
	<g>
		<path class="st3" d="M250.9,374.5c11.5,0,23.7-5,31.8-13.2c7.8-7.8,13.7-20.6,13.2-31.8c-0.5-11.6-4.3-23.7-13.2-31.8
			c-8.8-8.1-19.6-13.2-31.8-13.2c-11.5,0-23.7,5-31.8,13.2c-7.8,7.8-13.7,20.6-13.2,31.8c0.5,11.6,4.3,23.7,13.2,31.8
			C227.9,369.4,238.7,374.5,250.9,374.5L250.9,374.5z"/>
	</g>
</g>
<path class="st4" d="M243.6,244.2c-10.6-8.1-1-25.6-9.1-57.5c-1.2-4.5-0.6-1.2-7.7-22.5c-8.3-24.7-12.5-37.3-12.6-45.6
	c-0.2-7.6-0.6-28.1,13.3-38.6c7.9-6,17.1-6.2,20.3-6.3c2.8-0.1,16.3-0.2,26.7,9.1c9.7,8.7,11,20.4,12.6,35.1
	c2.1,19.4-1.8,34.7-4.2,43.5c-3.2,12-4.7,11.3-8.4,23.2c-10.8,34.5-2.8,55.9-14,61.7C255.3,248.9,248,247.5,243.6,244.2z"/>
<path class="st5" d="M290.7,368.3c-21.8,20.6-55,21.3-76,3.3c-24.6-21.1-24.9-61.6-0.7-83.3c21.2-19,55.3-18.5,77.3,2.7"/>
</svg>
