<?xml version="1.0" encoding="utf-8"?>
<!-- Generator: Adobe Illustrator 19.0.0, SVG Export Plug-In . SVG Version: 6.00 Build 0)  -->
<svg version="1.1" id="Layer_1" xmlns="http://www.w3.org/2000/svg" xmlns:xlink="http://www.w3.org/1999/xlink" x="0px" y="0px"
	 viewBox="0 0 515 540" style="enable-background:new 0 0 515 540;" xml:space="preserve">
<style type="text/css">
	.st0{fill:#FFFFFF;stroke:#000000;stroke-width:37;stroke-miterlimit:10;}
	.st1{fill:#1C75BC;}
	.st2{fill:#ED1C24;}
	.st3{fill:#ED1C24;stroke:#000000;stroke-width:20;stroke-miterlimit:10;}
	.st4{fill:none;stroke:#000000;stroke-width:26;stroke-linecap:round;stroke-miterlimit:10;}
</style>
<path class="st0" d="M352.7,496.7H163.3c-22.5,0-41-18.4-41-41V90.3c0-22.6,18.5-41,41-41h189.3c22.6,0,41,18.5,41,41v365.3
	C393.7,478.2,375.2,496.7,352.7,496.7z"/>
<g>
	<path class="st1" d="M265.2,372.8"/>
	<g>
		<path class="st2" d="M265.2,415.6c11,0,22.5-4.8,30.2-12.5c7.4-7.4,13-19.6,12.5-30.2c-1-23.2-18.8-42.8-42.8-42.8
			c-11,0-22.5,4.8-30.2,12.5c-7.4,7.4-13,19.6-12.5,30.2C223.5,396,241.3,415.6,265.2,415.6L265.2,415.6z"/>
	</g>
</g>
<path class="st3" d="M252,277.8c-10.8-7.4-6.7-21.9-11.2-68c-1.1-11.3-1.7-17-2.9-23c-5.4-26.9-13.8-29.8-14.2-47.4
	c-0.2-7.9-0.7-29.2,15-40.1c8.8-6.2,19.1-6.5,22.8-6.6c3.2-0.1,18.3-0.2,29.9,9.5c12.6,10.4,13.5,25.7,14.2,36.5
	c0.4,6.2-0.1,11.4-9.4,50.4c-4.8,20.2-4.3,17.2-5.2,21.5c-8.8,42.3-1.3,61.3-13.5,68.7C270.3,283.5,258.8,282.5,252,277.8z"/>
<path class="st4" d="M305,411.7c-21.8,20.6-55,21.3-76,3.3c-24.6-21.1-24.9-61.6-0.7-83.3c21.2-19,55.3-18.5,77.3,2.7"/>
</svg>
